# xmcd
#
# Track frame offsets: 
#        150
#        18005
#        34539
#        48765
#        64649
#        76716
#        93467
#        111086
#        130335
#        143865
#        161785
#        176076
#        192771
#
# Disc length: 2758 seconds
#
# Revision: 0
# Processed by: cddbd v1.5.2PL0 Copyright (c) Steve Scherf et al.
# Submitted via: ExactAudioCopyFreeDBPlugin 1.0
#
DISCID=9e0ac40d
DTITLE=Stoney LaRue - Onward
DYEAR=2019
DGENRE=Country
TTITLE0=You Oughta Know Me By Now
TTITLE1=Hill Country Boogaloo
TTITLE2=Falling And Flying
TTITLE3=Not One Moment
TTITLE4=Meet In The Middle [with Tanya Tucker]
TTITLE5=Message In A Bottle
TTITLE6=Evil Angel
TTITLE7=Drowning In Moonlight
TTITLE8=Worry Be Gone
TTITLE9=I Can't Help You Say Goodbye
TTITLE10=Let's Chase Each Other Around The Room
TTITLE11=Thought You'd Want To Know
TTITLE12=High Time
EXTD=
EXTT0=
EXTT1=
EXTT2=
EXTT3=
EXTT4=
EXTT5=
EXTT6=
EXTT7=
EXTT8=
EXTT9=
EXTT10=
EXTT11=
EXTT12=
PLAYORDER=
